<?xml version="1.0" encoding="UTF-8" standalone="no"?>
<!-- Created with Inkscape (http://www.inkscape.org/) -->

<svg
   xmlns:dc="http://purl.org/dc/elements/1.1/"
   xmlns:cc="http://creativecommons.org/ns#"
   xmlns:rdf="http://www.w3.org/1999/02/22-rdf-syntax-ns#"
   xmlns:svg="http://www.w3.org/2000/svg"
   xmlns="http://www.w3.org/2000/svg"
   xmlns:sodipodi="http://sodipodi.sourceforge.net/DTD/sodipodi-0.dtd"
   xmlns:inkscape="http://www.inkscape.org/namespaces/inkscape"
   width="240"
   height="20"
   id="svg5327"
   version="1.1"
   inkscape:version="0.48.2 r9819"
   sodipodi:docname="directions.svg"
   inkscape:export-filename="/Users/saman/work_repos/mapbox-directions.js/dist/directions.png"
   inkscape:export-xdpi="90"
   inkscape:export-ydpi="90">
  <defs
     id="defs5329" />
  <sodipodi:namedview
     id="base"
     pagecolor="#ffffff"
     bordercolor="#666666"
     borderopacity="1.0"
     inkscape:pageopacity="0.0"
     inkscape:pageshadow="2"
     inkscape:zoom="1"
     inkscape:cx="230.23289"
     inkscape:cy="6.6654093"
     inkscape:document-units="px"
     inkscape:current-layer="layer1"
     showgrid="true"
     fit-margin-top="0"
     fit-margin-left="0"
     fit-margin-right="0"
     fit-margin-bottom="0"
     inkscape:window-width="1280"
     inkscape:window-height="756"
     inkscape:window-x="91"
     inkscape:window-y="27"
     inkscape:window-maximized="0"
     showguides="false">
    <inkscape:grid
       type="xygrid"
       id="grid5368"
       empspacing="5"
       visible="true"
       enabled="true"
       snapvisiblegridlinesonly="true" />
  </sodipodi:namedview>
  <metadata
     id="metadata5332">
    <rdf:RDF>
      <cc:Work
         rdf:about="">
        <dc:format>image/svg+xml</dc:format>
        <dc:type
           rdf:resource="http://purl.org/dc/dcmitype/StillImage" />
        <dc:title></dc:title>
      </cc:Work>
    </rdf:RDF>
  </metadata>
  <g
     inkscape:label="Layer 1"
     inkscape:groupmode="layer"
     id="layer1"
     transform="translate(-3200,-992.36218)">
    <path
       sodipodi:nodetypes="cccccccc"
       inkscape:connector-curvature="0"
       id="path6002-6-5-5"
       d="m 3215.5,1001.3622 -5.5,-5.5 -5.5,5.5 4.5,0 0,7 2,0 0,-7 z"
       style="opacity:0.75;color:#000000;fill:#000000;fill-opacity:1;fill-rule:nonzero;stroke:none;stroke-width:1;marker:none;visibility:visible;display:inline;overflow:visible;enable-background:accumulate" />
    <path
       inkscape:connector-curvature="0"
       style="font-size:medium;font-style:normal;font-variant:normal;font-weight:normal;font-stretch:normal;text-indent:0;text-align:start;text-decoration:none;line-height:normal;letter-spacing:normal;word-spacing:normal;text-transform:none;direction:ltr;block-progression:tb;writing-mode:lr-tb;text-anchor:start;baseline-shift:baseline;opacity:0.75;color:#000000;fill:#000000;fill-opacity:1;stroke:none;stroke-width:1.99999988;marker:none;visibility:visible;display:inline;overflow:visible;enable-background:accumulate;font-family:Sans;-inkscape-font-specification:Sans"
       d="m 3289,996.36218 c -1.7222,0 -3.0854,0.60866 -3.9062,1.59375 -0.821,0.98509 -1.0938,2.23957 -1.0938,3.40627 l 0,6 2,0 0,-6 c 0,-0.8333 0.2272,-1.6101 0.6562,-2.12502 0.4291,-0.51492 1.066,-0.875 2.3438,-0.875 1.2778,0 1.9146,0.36008 2.3438,0.875 0.429,0.51492 0.6562,1.29172 0.6562,2.12502 l 0,2 -4.5,0 5.5,5.5 5.5,-5.5 -4.5,0 0,-2 c 0,-1.1667 -0.2728,-2.42118 -1.0938,-3.40627 -0.8209,-0.98509 -2.184,-1.59375 -3.9062,-1.59375 z"
       id="rect4998" />
    <g
       style="opacity:0.75;display:inline"
       id="g4880"
       transform="matrix(-1,0,0,1,6519,-3.8281269e-7)">
      <path
         style="color:#000000;fill:#000000;fill-opacity:1;fill-rule:nonzero;stroke:none;stroke-width:1;marker:none;visibility:visible;display:inline;overflow:visible;enable-background:accumulate"
         d="m 3327.5,4 3.0312,3.03125 -3.5312,3.53125 0,5.4375 2,0 0,-4.59375 2.9375,-2.96875 L 3335,11.5 3335,4 z"
         transform="matrix(-1,0,0,1,6580,992.36218)"
         id="path4705"
         inkscape:connector-curvature="0"
         sodipodi:nodetypes="cccccccccc" />
    </g>
    <path
       sodipodi:nodetypes="ccccccccccc"
       inkscape:connector-curvature="0"
       id="path4878"
       d="m 3251,995.86218 0,4.50002 -5,0 -1,1 0,6 2,0 0,-5 4,0 0,4.5 5.5,-5.5 z"
       style="font-size:medium;font-style:normal;font-variant:normal;font-weight:normal;font-stretch:normal;text-indent:0;text-align:start;text-decoration:none;line-height:normal;letter-spacing:normal;word-spacing:normal;text-transform:none;direction:ltr;block-progression:tb;writing-mode:lr-tb;text-anchor:start;baseline-shift:baseline;opacity:0.75;color:#000000;fill:#000000;fill-opacity:1;stroke:none;stroke-width:4;marker:none;visibility:visible;display:inline;overflow:visible;enable-background:accumulate;font-family:Sans;-inkscape-font-specification:Sans" />
    <path
       style="opacity:0.75;color:#000000;fill:#000000;fill-opacity:1;fill-rule:nonzero;stroke:none;stroke-width:1;marker:none;visibility:visible;display:inline;overflow:visible;enable-background:accumulate"
       d="m 3226.4375,996.36218 -1.4375,1 0,8.00002 2,0 0,-5.5938 4.5625,4.5313 -3.0625,3.0625 7.5,0 0,-7.5 -3.0312,3.0312 -6.5313,-6.53122 z"
       id="path4886"
       inkscape:connector-curvature="0" />
    <g
       style="opacity:0.75;display:inline"
       transform="translate(101,-3.8281269e-7)"
       id="g4939">
      <path
         style="color:#000000;fill:#000000;fill-opacity:1;fill-rule:nonzero;stroke:none;stroke-width:1;marker:none;visibility:visible;display:inline;overflow:visible;enable-background:accumulate"
         d="m 3485,4 0,7.5 3.0625,-3.0625 2.9375,2.96875 0,4.59375 2,0 0,-5.4375 -3.5312,-3.53125 L 3492.5,4 z"
         transform="translate(-240,992.36218)"
         id="path4941"
         inkscape:connector-curvature="0"
         sodipodi:nodetypes="cccccccccc" />
    </g>
    <path
       style="font-size:medium;font-style:normal;font-variant:normal;font-weight:normal;font-stretch:normal;text-indent:0;text-align:start;text-decoration:none;line-height:normal;letter-spacing:normal;word-spacing:normal;text-transform:none;direction:ltr;block-progression:tb;writing-mode:lr-tb;text-anchor:start;baseline-shift:baseline;opacity:0.75;color:#000000;fill:#000000;fill-opacity:1;stroke:none;stroke-width:4;marker:none;visibility:visible;display:inline;overflow:visible;enable-background:accumulate;font-family:Sans;-inkscape-font-specification:Sans"
       d="m 3329,995.86218 0,4.50002 5,0 1,1 0,6 -2,0 0,-5 -4,0 0,4.5 -5.5,-5.5 z"
       id="path4945"
       inkscape:connector-curvature="0"
       sodipodi:nodetypes="ccccccccccc" />
    <path
       style="opacity:0.75;color:#000000;fill:#000000;fill-opacity:1;fill-rule:nonzero;stroke:none;stroke-width:1;marker:none;visibility:visible;display:inline;overflow:visible;enable-background:accumulate"
       d="m 3313.5625,996.36218 -6.5313,6.53122 -3.0312,-3.0312 0,7.5 7.5,0 -3.0625,-3.0625 4.5625,-4.5313 0,5.5938 2,0 0,-8.00002 -1.4375,-1 z"
       id="path4947"
       inkscape:connector-curvature="0" />
    <path
       style="opacity:0.75;color:#000000;fill:#000000;fill-opacity:1;fill-rule:nonzero;stroke:none;stroke-width:1;marker:none;visibility:visible;display:inline;overflow:visible;enable-background:accumulate"
       d="m 3370,994.86218 -5.5,5.50002 4.5,0 0,4 2,0 0,-4 4.5,0 z m 0,10.50002 c -1.1046,0 -2,0.8954 -2,2 0,1.1045 0.8954,2 2,2 1.1046,0 2,-0.8955 2,-2 0,-1.1046 -0.8954,-2 -2,-2 z"
       id="path5005"
       inkscape:connector-curvature="0"
       sodipodi:nodetypes="ccccccccsssss" />
    <path
       style="font-size:medium;font-style:normal;font-variant:normal;font-weight:normal;font-stretch:normal;text-indent:0;text-align:start;text-decoration:none;line-height:normal;letter-spacing:normal;word-spacing:normal;text-transform:none;direction:ltr;block-progression:tb;writing-mode:lr-tb;text-anchor:start;baseline-shift:baseline;opacity:0.75;color:#000000;fill:#000000;fill-opacity:1;stroke:none;stroke-width:1.60001969;marker:none;visibility:visible;display:inline;overflow:visible;enable-background:accumulate;font-family:Sans;-inkscape-font-specification:Sans"
       d="m 3390,995.39343 c -1.5376,0 -3.0827,0.55137 -4.25,1.71875 -2.3349,2.33472 -2.3349,6.16522 0,8.50002 l 1.4375,-1.4375 c -1.5705,-1.5704 -1.5705,-4.0546 0,-5.62502 1.5705,-1.57045 4.0546,-1.57045 5.625,0 1.5705,1.57042 1.5705,4.05462 0,5.62502 -0.7503,0.7504 -1.7513,1.1875 -2.8125,1.1875 l -1,0 0,4 2,0 0,-2.0625 c 1.2269,-0.2054 2.3619,-0.7994 3.25,-1.6875 2.3348,-2.3348 2.3348,-6.1653 0,-8.50002 -1.1674,-1.16738 -2.7124,-1.71875 -4.25,-1.71875 z"
       id="path5026"
       inkscape:connector-curvature="0"
       sodipodi:nodetypes="scccsccscccccss" />
    <g
       style="opacity:0.75;display:inline"
       id="g5247"
       transform="translate(-160,-1.0000004)">
      <path
         style="color:#000000;fill:#000000;fill-opacity:1;fill-rule:nonzero;stroke:none;stroke-width:1;marker:none;visibility:visible;display:inline;overflow:visible;enable-background:accumulate"
         d="m 3610,4 c -1.1046,0 -2,0.8954324 -2,2 0,1.1045676 0.8954,2 2,2 1.1046,0 2,-0.8954324 2,-2 0,-1.1045676 -0.8954,-2 -2,-2 z m 0,5.5 -5.5,5.5 4.5,0 0,3 2,0 0,-3 4.5,0 z"
         transform="translate(-40,992.36218)"
         id="path5011"
         inkscape:connector-curvature="0"
         sodipodi:nodetypes="ssssscccccccc" />
    </g>
    <g
       id="g5936"
       transform="matrix(1,0,0,-1,1,2004.7244)"
       style="opacity:0.5" />
    <g
       id="g5932"
       transform="translate(1,-2)" />
    <g
       transform="matrix(1,0,0,-1,1,2024.7244)"
       id="g6038"
       style="fill:#ffffff" />
    <path
       style="opacity:0.75;color:#000000;fill:#000000;fill-opacity:1;fill-rule:nonzero;stroke:none;stroke-width:1;marker:none;visibility:visible;display:inline;overflow:visible;enable-background:accumulate"
       d="m 230,3.5 -4.5,4.5 3.5,0 0,4 -3.5,0 4.5,4.5 4.5,-4.5 -3.5,0 0,-4 3.5,0 -4.5,-4.5 z"
       transform="translate(3200,992.36218)"
       id="path6002-6-5-5-0"
       inkscape:connector-curvature="0" />
    <rect
       style="opacity:0.75;color:#000000;fill:none;stroke:none;stroke-width:2;marker:none;visibility:visible;display:inline;overflow:visible;enable-background:accumulate"
       id="rect4868"
       width="240"
       height="20"
       x="0"
       y="0"
       transform="translate(3200,992.36218)" />
  </g>
</svg>
